PathFileType   4   (X/Y/Z)
DataRate	CameraRate	NumFrames	NumMarkers	Units	OrigDataRate	OrigDataStartFrame	OrigNumFrames
120.0	120.0	9	37	mm	120.0	1	122
Frame#	Time	midhip	hip_r	hip_l	knee_r	knee_l	ankle_r	ankle_l	midasis	asis_r	asis_l	psis_r	psis_l	epicondLat_r	epicondLat_l	epicondMed_r	epicondMed_l	malleolusLat_r	malleolusLat_l	malleolusMedv_r	malleolusMedv_l	neck	subclavicle_r	subclavicle_l	sternalnotch	xyphoidprocess	thighwand_r	thighwand_l	upperleg1_r	upperleg1_l	upperleg2_r	upperleg2_l	shankwand_r	shankwand_l	lowerleg1_r	lowerleg1_l	toe_r	toe_l
 	 	X1	Y1	Z1	X2	Y2	Z2	X3	Y3	Z3	X4	Y4	Z4	X5	Y5	Z5	X6	Y6	Z6	X7	Y7	Z7	X8	Y8	Z8	X9	Y9	Z9	X10	Y10	Z10	X11	Y11	Z11	X12	Y12	Z12	X13	Y13	Z13	X14	Y14	Z14	X15	Y15	Z15	X16	Y16	Z16	X17	Y17	Z17	X18	Y18	Z18	X19	Y19	Z19	X20	Y20	Z20	X21	Y21	Z21	X22	Y22	Z22	X23	Y23	Z23	X24	Y24	Z24	X25	Y25	Z25	X26	Y26	Z26	X27	Y27	Z27	X28	Y28	Z28	X29	Y29	Z29	X30	Y30	Z30	X31	Y31	Z31	X32	Y32	Z32	X33	Y33	Z33	X34	Y34	Z34	X35	Y35	Z35	X36	Y36	Z36	X37	Y37	Z37

	1	0.10833	1104.184	655.390	-200.857	1098.144	656.428	-134.592	1098.318	665.812	-260.071	1021.908	349.690	-137.101	1243.034	383.006	-223.189	764.952	152.473	-132.587	1258.255	58.655	-228.609	1162.529	725.857	-192.401	1162.398	718.796	-97.973	1162.661	732.919	-286.829	1016.239	761.515	-171.873	1012.925	758.180	-226.906	1023.573	348.864	-86.636	1247.606	378.875	-272.808	1026.963	336.667	-184.530	1253.524	387.278	-167.017	761.794	157.342	-99.593	1255.481	59.099	-262.995	766.852	160.546	-157.761	1250.583	64.731	-200.613	1025.858	1105.927	-208.764	1118.021	1067.999	-151.924	1105.005	1067.066	-280.990	1106.676	1055.711	-218.182	1140.903	915.641	-220.156	1048.784	435.465	-9.709	1320.975	536.093	-262.509	1093.723	485.622	-78.765	1229.382	557.735	-216.847	1087.514	402.013	-91.100	1260.974	477.634	-200.281	834.024	229.956	-26.922	1342.428	161.413	-259.392	884.540	252.909	-86.335	1283.109	216.188	-241.251	768.762	55.605	-138.857	1350.647	37.877	-222.640
	2	0.11667	1114.082	655.955	-201.676	1107.998	657.013	-135.422	1108.176	666.585	-260.887	1040.895	347.538	-135.919	1250.063	382.914	-223.252	780.453	156.685	-132.407	1258.520	58.469	-228.362	1172.474	726.441	-193.131	1172.339	719.238	-98.728	1172.608	733.643	-287.534	1026.203	762.115	-172.564	1022.820	759.199	-227.565	1042.129	347.190	-85.435	1254.715	378.660	-272.853	1045.853	332.785	-182.002	1260.397	387.084	-167.253	777.259	161.651	-99.431	1255.885	58.943	-262.758	783.249	163.672	-157.547	1250.728	64.542	-200.563	1036.384	1106.856	-209.371	1128.598	1068.879	-152.640	1115.373	1067.677	-281.576	1117.102	1056.437	-218.847	1151.096	916.326	-220.510	1063.938	434.732	-9.236	1329.702	535.254	-262.670	1108.585	485.052	-78.292	1238.319	557.527	-218.034	1104.084	400.856	-89.166	1268.982	477.218	-200.878	850.529	232.558	-26.402	1345.097	159.232	-258.967	901.709	254.484	-85.556	1286.629	215.211	-240.982	779.039	58.900	-137.862	1350.937	37.441	-222.263
	3	0.12500	1123.583	656.695	-202.381	1117.519	657.816	-136.138	1117.699	667.462	-261.597	1060.258	345.801	-134.736	1256.473	382.762	-223.449	796.754	160.847	-132.368	1258.753	58.312	-228.213	1182.147	727.127	-193.816	1182.012	719.871	-99.441	1182.283	734.384	-288.192	1035.904	762.974	-173.295	1032.530	760.447	-228.280	1060.907	345.908	-84.240	1261.077	378.361	-273.042	1073.497	328.599	-181.837	1266.788	386.935	-167.413	793.521	165.875	-99.405	1256.163	58.799	-262.612	800.683	166.434	-157.455	1250.996	64.423	-200.412	1046.789	1107.977	-209.929	1139.065	1069.840	-153.263	1125.316	1067.962	-281.879	1127.407	1057.279	-219.389	1160.488	916.780	-220.210	1078.917	434.267	-8.736	1337.882	534.147	-263.192	1123.478	484.877	-77.578	1246.977	557.405	-219.061	1124.255	400.982	-87.657	1276.584	476.776	-201.465	867.634	235.097	-25.977	1347.350	157.213	-258.862	920.262	255.247	-85.101	1289.540	214.291	-241.271	791.118	62.361	-136.857	1351.137	37.144	-221.998
	4	0.13333	1132.732	657.631	-202.994	1126.751	658.833	-136.762	1126.897	668.475	-262.221	1079.918	344.546	-133.561	1262.299	382.573	-223.788	813.779	164.916	-132.458	1258.943	58.173	-228.161	1191.560	727.947	-194.474	1191.450	720.697	-100.134	1191.670	735.197	-288.815	1045.355	764.081	-174.003	1042.051	761.908	-228.992	1079.845	345.071	-83.064	1266.767	378.023	-273.380	1093.948	327.006	-180.879	1272.553	386.880	-167.509	810.501	169.976	-99.505	1256.349	58.663	-262.560	818.685	169.172	-157.606	1251.206	64.419	-200.314	1057.062	1109.259	-210.433	1149.394	1070.916	-153.809	1135.467	1068.699	-282.327	1137.592	1058.255	-219.813	1170.189	917.580	-220.285	1093.724	434.082	-8.222	1345.533	532.867	-263.974	1138.234	485.154	-76.627	1255.155	557.376	-220.024	1141.246	400.955	-86.247	1283.622	476.365	-202.035	885.267	237.586	-25.646	1349.263	155.362	-258.975	939.606	255.295	-84.844	1291.925	213.459	-241.942	805.152	65.904	-135.888	1351.264	36.943	-221.839
	5	0.14167	1141.591	658.763	-203.534	1135.742	660.054	-137.316	1135.802	669.640	-262.779	1099.794	343.825	-132.403	1267.582	382.365	-224.269	831.459	168.838	-132.660	1259.076	58.049	-228.202	1200.732	728.921	-195.121	1200.686	721.717	-100.823	1200.777	736.126	-289.418	1054.579	765.411	-174.644	1051.385	763.551	-229.655	1098.888	344.712	-81.919	1271.859	377.679	-273.865	1106.287	326.228	-177.349	1276.912	386.709	-168.063	828.125	173.901	-99.713	1256.471	58.534	-262.600	837.033	172.364	-157.883	1251.263	64.539	-200.461	1067.256	1110.698	-210.863	1159.504	1072.081	-154.178	1145.658	1069.844	-282.785	1147.645	1059.367	-220.127	1179.902	918.655	-220.608	1108.388	434.182	-7.704	1352.684	531.485	-264.925	1152.728	485.798	-75.795	1262.749	557.463	-220.846	1154.653	400.869	-84.049	1289.685	475.870	-202.743	903.360	240.035	-25.406	1350.908	153.677	-259.195	958.977	256.084	-84.131	1294.069	212.846	-242.671	821.203	69.439	-134.988	1351.334	36.803	-221.777
	6	0.15000	1150.227	660.080	-204.018	1144.543	661.463	-137.819	1144.457	670.957	-263.290	1119.797	343.674	-131.273	1272.367	382.147	-224.881	849.729	172.539	-132.950	1259.139	57.941	-228.321	1209.690	730.060	-195.768	1209.755	722.929	-101.520	1209.626	737.191	-290.016	1063.601	766.933	-175.198	1060.541	765.338	-230.244	1117.986	344.855	-80.819	1276.426	377.348	-274.484	1134.368	324.767	-177.091	1279.924	386.361	-169.419	846.325	177.588	-100.008	1256.547	58.411	-262.720	855.508	176.133	-158.274	1251.290	64.704	-200.603	1077.358	1112.312	-211.194	1169.419	1073.342	-154.326	1155.705	1071.134	-283.011	1157.575	1060.641	-220.355	1189.298	919.826	-220.736	1122.962	434.566	-7.192	1359.368	530.043	-265.972	1167.246	486.847	-75.026	1269.770	557.620	-221.575	1174.540	403.131	-82.530	1294.798	475.299	-203.762	921.852	242.444	-25.252	1352.345	152.149	-259.438	978.171	257.663	-83.138	1296.206	212.336	-243.284	839.233	72.873	-134.181	1351.360	36.705	-221.801
	7	0.15833	1158.706	661.561	-204.457	1153.200	663.042	-138.285	1152.914	672.409	-263.765	1139.836	344.111	-130.188	1276.700	381.928	-225.604	868.537	175.934	-133.305	1259.136	57.850	-228.501	1218.471	731.360	-196.424	1218.686	724.328	-102.230	1218.256	738.392	-290.618	1072.454	768.615	-175.664	1069.532	767.232	-230.752	1137.099	345.505	-79.781	1280.527	377.041	-275.217	1152.837	324.833	-175.011	1283.216	386.120	-170.825	865.048	180.953	-100.367	1256.592	58.296	-262.904	874.202	180.154	-158.739	1251.305	64.850	-200.656	1087.365	1114.070	-211.520	1179.220	1074.749	-154.362	1165.645	1072.571	-283.090	1167.380	1062.086	-220.507	1198.565	921.143	-220.736	1137.515	435.236	-6.693	1365.630	528.552	-267.069	1181.556	488.421	-74.005	1276.358	557.719	-222.418	1190.319	404.649	-80.613	1299.796	474.859	-204.886	940.692	244.787	-25.174	1353.613	150.768	-259.661	997.620	259.529	-82.765	1298.411	211.833	-243.765	859.099	76.121	-133.479	1351.358	36.634	-221.895
	8	0.16667	1167.077	663.179	-204.852	1161.752	664.772	-138.721	1161.226	673.972	-264.212	1159.817	345.131	-129.172	1280.626	381.713	-226.411	887.843	178.929	-133.699	1259.087	57.779	-228.722	1227.110	732.808	-197.091	1227.504	725.907	-102.952	1226.716	739.710	-291.230	1081.167	770.426	-176.056	1078.374	769.200	-231.190	1156.188	346.657	-78.825	1284.212	376.759	-276.036	1172.525	325.547	-173.309	1286.827	385.887	-172.023	884.253	183.906	-100.766	1256.613	58.189	-263.131	893.365	184.200	-159.224	1251.369	65.028	-200.835	1097.260	1115.965	-211.843	1188.886	1076.316	-154.384	1175.455	1074.193	-283.198	1177.049	1063.681	-220.579	1207.735	922.640	-220.775	1152.126	436.194	-6.215	1371.516	527.004	-268.194	1195.425	490.408	-72.794	1282.837	557.636	-223.331	1206.459	406.747	-78.797	1304.862	474.404	-205.986	959.845	247.012	-25.162	1354.733	149.521	-259.869	1017.488	261.866	-82.971	1299.786	211.179	-243.801	880.585	79.106	-132.883	1351.339	36.580	-222.039
	9	0.17500	1175.379	664.908	-205.202	1170.227	666.634	-139.129	1169.439	675.613	-264.635	1179.647	346.709	-128.256	1284.186	381.506	-227.270	907.607	181.433	-134.110	1259.023	57.727	-228.962	1235.641	734.384	-197.769	1236.232	727.652	-103.682	1235.050	741.115	-291.856	1089.768	772.339	-176.395	1087.085	771.214	-231.575	1175.218	348.288	-77.975	1287.519	376.501	-276.907	1192.455	326.917	-171.394	1290.329	385.484	-173.338	903.908	186.355	-101.180	1256.618	58.093	-263.377	913.066	187.912	-159.754	1251.454	65.258	-201.136	1107.045	1117.962	-212.081	1198.298	1078.047	-154.355	1185.115	1075.970	-283.257	1186.598	1065.406	-220.595	1216.731	924.304	-220.739	1166.874	437.442	-5.761	1377.076	525.384	-269.341	1209.083	492.836	-71.482	1288.992	557.390	-224.185	1222.579	409.606	-76.834	1309.702	473.805	-207.123	979.280	249.045	-25.199	1355.713	148.397	-260.103	1037.394	264.559	-83.137	1299.987	210.244	-243.445	903.425	81.764	-132.386	1351.314	36.538	-222.214
